<svg xmlns="http://www.w3.org/2000/svg" width="800" height="480" viewBox="0 0 800 480">
  <defs>
    <style>
      .mono { font-family: -apple-system, 'Segoe UI', sans-serif; }
    </style>
    <linearGradient id="header-grad" x1="0%" y1="0%" x2="100%" y2="0%">
      <stop offset="0%" style="stop-color:#4a0080;stop-opacity:1" />
      <stop offset="100%" style="stop-color:#6a00c0;stop-opacity:1" />
    </linearGradient>
    <linearGradient id="bar-red" x1="0%" y1="0%" x2="100%" y2="0%">
      <stop offset="0%" style="stop-color:#ef4444;stop-opacity:1" />
      <stop offset="100%" style="stop-color:#dc2626;stop-opacity:1" />
    </linearGradient>
    <linearGradient id="bar-yellow" x1="0%" y1="0%" x2="100%" y2="0%">
      <stop offset="0%" style="stop-color:#f59e0b;stop-opacity:1" />
      <stop offset="100%" style="stop-color:#d97706;stop-opacity:1" />
    </linearGradient>
    <linearGradient id="bar-green" x1="0%" y1="0%" x2="100%" y2="0%">
      <stop offset="0%" style="stop-color:#10b981;stop-opacity:1" />
      <stop offset="100%" style="stop-color:#059669;stop-opacity:1" />
    </linearGradient>
  </defs>

  <!-- Window background -->
  <rect width="800" height="480" fill="#0f0f1a" rx="12"/>

  <!-- Window chrome bar -->
  <rect width="800" height="36" fill="#1a1a2e" rx="12"/>
  <rect y="26" width="800" height="10" fill="#1a1a2e"/>
  <circle cx="20" cy="18" r="6" fill="#ff5f57"/>
  <circle cx="40" cy="18" r="6" fill="#febc2e"/>
  <circle cx="60" cy="18" r="6" fill="#28c840"/>
  <text x="400" y="23" text-anchor="middle" font-family="-apple-system, sans-serif" font-size="12" fill="#6b6b8a">sentrix dashboard — localhost:7234</text>

  <!-- Header bar -->
  <rect y="36" x="0" width="800" height="48" fill="url(#header-grad)"/>
  <text x="20" y="67" font-family="-apple-system, sans-serif" font-size="18" font-weight="700" fill="white">sentrix</text>
  <rect x="80" y="55" width="42" height="18" rx="9" fill="rgba(255,255,255,0.2)"/>
  <text x="101" y="68" text-anchor="middle" font-family="-apple-system, sans-serif" font-size="10" fill="white">v0.1.0</text>

  <!-- Tab bar -->
  <rect y="84" x="0" width="800" height="40" fill="#1a1a2e"/>
  <!-- Tabs -->
  <rect x="20" y="97" width="70" height="24" rx="4" fill="rgba(192,132,252,0.2)"/>
  <text x="55" y="114" text-anchor="middle" font-family="-apple-system, sans-serif" font-size="12" fill="#c084fc" font-weight="600">Security</text>
  <text x="140" y="114" text-anchor="middle" font-family="-apple-system, sans-serif" font-size="12" fill="#6b6b8a">Agents</text>
  <text x="210" y="114" text-anchor="middle" font-family="-apple-system, sans-serif" font-size="12" fill="#6b6b8a">Eval</text>
  <text x="275" y="114" text-anchor="middle" font-family="-apple-system, sans-serif" font-size="12" fill="#6b6b8a">Monitor</text>
  <text x="340" y="114" text-anchor="middle" font-family="-apple-system, sans-serif" font-size="12" fill="#6b6b8a">Review</text>
  <text x="415" y="114" text-anchor="middle" font-family="-apple-system, sans-serif" font-size="12" fill="#6b6b8a">Compliance</text>
  <text x="490" y="114" text-anchor="middle" font-family="-apple-system, sans-serif" font-size="12" fill="#6b6b8a">Costs</text>
  <!-- Active tab underline -->
  <rect x="22" y="120" width="66" height="2" rx="1" fill="#c084fc"/>

  <!-- Content area -->
  <rect y="124" x="0" width="800" height="356" fill="#0f0f1a"/>

  <!-- Stat cards row -->
  <!-- Card 1 -->
  <rect x="16" y="136" width="170" height="80" rx="8" fill="#1a1a2e" stroke="#2a2a4e" stroke-width="1"/>
  <text x="28" y="158" font-family="-apple-system, sans-serif" font-size="10" fill="#8888aa" text-transform="uppercase" letter-spacing="1">TOTAL SCANS</text>
  <text x="28" y="188" font-family="-apple-system, sans-serif" font-size="32" font-weight="700" fill="#e0e0ff">24</text>
  <text x="80" y="188" font-family="-apple-system, sans-serif" font-size="11" fill="#6bcb77"> +3 today</text>

  <!-- Card 2 -->
  <rect x="198" y="136" width="170" height="80" rx="8" fill="#1a1a2e" stroke="#2a2a4e" stroke-width="1"/>
  <text x="210" y="158" font-family="-apple-system, sans-serif" font-size="10" fill="#8888aa">AVG VULN RATE</text>
  <text x="210" y="188" font-family="-apple-system, sans-serif" font-size="32" font-weight="700" fill="#ff6b9d">28%</text>
  <text x="268" y="188" font-family="-apple-system, sans-serif" font-size="11" fill="#ff6b9d"> -5% vs last</text>

  <!-- Card 3 -->
  <rect x="380" y="136" width="170" height="80" rx="8" fill="#1a1a2e" stroke="#2a2a4e" stroke-width="1"/>
  <text x="392" y="158" font-family="-apple-system, sans-serif" font-size="10" fill="#8888aa">TOTAL COST</text>
  <text x="392" y="188" font-family="-apple-system, sans-serif" font-size="32" font-weight="700" fill="#e0e0ff">$1.84</text>
  <text x="450" y="188" font-family="-apple-system, sans-serif" font-size="11" fill="#6bcb77"> saved 67%</text>

  <!-- Card 4 -->
  <rect x="562" y="136" width="222" height="80" rx="8" fill="#1a1a2e" stroke="#2a2a4e" stroke-width="1"/>
  <text x="574" y="158" font-family="-apple-system, sans-serif" font-size="10" fill="#8888aa">GIT COMMITS SCANNED</text>
  <text x="574" y="188" font-family="-apple-system, sans-serif" font-size="32" font-weight="700" fill="#e0e0ff">12</text>
  <text x="624" y="188" font-family="-apple-system, sans-serif" font-size="11" fill="#6bcb77"> 0 regressions</text>

  <!-- Heatmap section -->
  <rect x="16" y="228" width="470" height="236" rx="8" fill="#1a1a2e" stroke="#2a2a4e" stroke-width="1"/>
  <text x="28" y="252" font-family="-apple-system, sans-serif" font-size="12" font-weight="600" fill="#c084fc">ATTACK HEATMAP</text>
  <text x="28" y="268" font-family="-apple-system, sans-serif" font-size="10" fill="#6b6b8a">Vulnerability rate by plugin × model</text>

  <!-- Heatmap grid headers -->
  <text x="120" y="290" font-family="-apple-system, sans-serif" font-size="10" fill="#8888aa" text-anchor="middle">gpt-4o-mini</text>
  <text x="240" y="290" font-family="-apple-system, sans-serif" font-size="10" fill="#8888aa" text-anchor="middle">claude-haiku</text>
  <text x="360" y="290" font-family="-apple-system, sans-serif" font-size="10" fill="#8888aa" text-anchor="middle">llama-3</text>

  <!-- Row: jailbreak -->
  <text x="28" y="315" font-family="-apple-system, sans-serif" font-size="11" fill="#c9d1d9">jailbreak</text>
  <rect x="74" y="300" width="90" height="22" rx="4" fill="#7f1d1d" opacity="0.9"/>
  <text x="119" y="315" font-family="-apple-system, sans-serif" font-size="11" fill="#fca5a5" text-anchor="middle" font-weight="600">40%</text>
  <rect x="194" y="300" width="90" height="22" rx="4" fill="#78350f" opacity="0.9"/>
  <text x="239" y="315" font-family="-apple-system, sans-serif" font-size="11" fill="#fcd34d" text-anchor="middle" font-weight="600">22%</text>
  <rect x="314" y="300" width="90" height="22" rx="4" fill="#14532d" opacity="0.9"/>
  <text x="359" y="315" font-family="-apple-system, sans-serif" font-size="11" fill="#6ee7b7" text-anchor="middle" font-weight="600">18%</text>

  <!-- Row: pii -->
  <text x="28" y="340" font-family="-apple-system, sans-serif" font-size="11" fill="#c9d1d9">pii</text>
  <rect x="74" y="325" width="90" height="22" rx="4" fill="#7f1d1d" opacity="0.9"/>
  <text x="119" y="340" font-family="-apple-system, sans-serif" font-size="11" fill="#fca5a5" text-anchor="middle" font-weight="600">55%</text>
  <rect x="194" y="325" width="90" height="22" rx="4" fill="#78350f" opacity="0.9"/>
  <text x="239" y="340" font-family="-apple-system, sans-serif" font-size="11" fill="#fcd34d" text-anchor="middle" font-weight="600">35%</text>
  <rect x="314" y="325" width="90" height="22" rx="4" fill="#14532d" opacity="0.9"/>
  <text x="359" y="340" font-family="-apple-system, sans-serif" font-size="11" fill="#6ee7b7" text-anchor="middle" font-weight="600">28%</text>

  <!-- Row: harmful -->
  <text x="28" y="365" font-family="-apple-system, sans-serif" font-size="11" fill="#c9d1d9">harmful</text>
  <rect x="74" y="350" width="90" height="22" rx="4" fill="#78350f" opacity="0.9"/>
  <text x="119" y="365" font-family="-apple-system, sans-serif" font-size="11" fill="#fcd34d" text-anchor="middle" font-weight="600">15%</text>
  <rect x="194" y="350" width="90" height="22" rx="4" fill="#14532d" opacity="0.9"/>
  <text x="239" y="365" font-family="-apple-system, sans-serif" font-size="11" fill="#6ee7b7" text-anchor="middle" font-weight="600">8%</text>
  <rect x="314" y="350" width="90" height="22" rx="4" fill="#14532d" opacity="0.9"/>
  <text x="359" y="365" font-family="-apple-system, sans-serif" font-size="11" fill="#6ee7b7" text-anchor="middle" font-weight="600">6%</text>

  <!-- Row: injection -->
  <text x="28" y="390" font-family="-apple-system, sans-serif" font-size="11" fill="#c9d1d9">injection</text>
  <rect x="74" y="375" width="90" height="22" rx="4" fill="#7f1d1d" opacity="0.9"/>
  <text x="119" y="390" font-family="-apple-system, sans-serif" font-size="11" fill="#fca5a5" text-anchor="middle" font-weight="600">45%</text>
  <rect x="194" y="375" width="90" height="22" rx="4" fill="#78350f" opacity="0.9"/>
  <text x="239" y="390" font-family="-apple-system, sans-serif" font-size="11" fill="#fcd34d" text-anchor="middle" font-weight="600">28%</text>
  <rect x="314" y="375" width="90" height="22" rx="4" fill="#78350f" opacity="0.9"/>
  <text x="359" y="390" font-family="-apple-system, sans-serif" font-size="11" fill="#fcd34d" text-anchor="middle" font-weight="600">21%</text>

  <!-- Legend -->
  <rect x="28" y="420" width="12" height="12" rx="2" fill="#7f1d1d"/>
  <text x="44" y="431" font-family="-apple-system, sans-serif" font-size="10" fill="#8888aa">&gt;40% critical</text>
  <rect x="140" y="420" width="12" height="12" rx="2" fill="#78350f"/>
  <text x="156" y="431" font-family="-apple-system, sans-serif" font-size="10" fill="#8888aa">20-40% warn</text>
  <rect x="250" y="420" width="12" height="12" rx="2" fill="#14532d"/>
  <text x="266" y="431" font-family="-apple-system, sans-serif" font-size="10" fill="#8888aa">&lt;20% safe</text>

  <!-- Recent scans panel -->
  <rect x="498" y="228" width="286" height="236" rx="8" fill="#1a1a2e" stroke="#2a2a4e" stroke-width="1"/>
  <text x="510" y="252" font-family="-apple-system, sans-serif" font-size="12" font-weight="600" fill="#c084fc">RECENT SCANS</text>

  <!-- Scan rows -->
  <!-- Scan 1 -->
  <rect x="510" y="262" width="262" height="44" rx="6" fill="#111827"/>
  <text x="522" y="280" font-family="-apple-system, sans-serif" font-size="11" font-weight="600" fill="#e0e0ff">my_chatbot</text>
  <text x="522" y="296" font-family="-apple-system, sans-serif" font-size="10" fill="#6b6b8a">jailbreak · pii · harmful  ·  3 min ago</text>
  <rect x="680" y="265" width="60" height="20" rx="10" fill="#7f1d1d"/>
  <text x="710" y="279" text-anchor="middle" font-family="-apple-system, sans-serif" font-size="10" fill="#fca5a5" font-weight="600">28% vuln</text>

  <!-- Scan 2 -->
  <rect x="510" y="312" width="262" height="44" rx="6" fill="#111827"/>
  <text x="522" y="330" font-family="-apple-system, sans-serif" font-size="11" font-weight="600" fill="#e0e0ff">rag_pipeline</text>
  <text x="522" y="346" font-family="-apple-system, sans-serif" font-size="10" fill="#6b6b8a">injection · pii  ·  1 hour ago</text>
  <rect x="680" y="315" width="60" height="20" rx="10" fill="#14532d"/>
  <text x="710" y="329" text-anchor="middle" font-family="-apple-system, sans-serif" font-size="10" fill="#6ee7b7" font-weight="600">8% vuln</text>

  <!-- Scan 3 -->
  <rect x="510" y="362" width="262" height="44" rx="6" fill="#111827"/>
  <text x="522" y="380" font-family="-apple-system, sans-serif" font-size="11" font-weight="600" fill="#e0e0ff">support_agent</text>
  <text x="522" y="396" font-family="-apple-system, sans-serif" font-size="10" fill="#6b6b8a">all plugins  ·  2 hours ago</text>
  <rect x="680" y="365" width="60" height="20" rx="10" fill="#78350f"/>
  <text x="710" y="379" text-anchor="middle" font-family="-apple-system, sans-serif" font-size="10" fill="#fcd34d" font-weight="600">35% vuln</text>

  <!-- View all link -->
  <text x="510" y="452" font-family="-apple-system, sans-serif" font-size="11" fill="#c084fc">View all scans →</text>
</svg>
