<svg xmlns="http://www.w3.org/2000/svg" width="720" height="340" viewBox="0 0 720 340">
  <defs>
    <style>
      .bg { fill: #0d1117; }
      .panel { fill: #161b22; rx: 8; }
      .title { fill: #c9d1d9; font-family: 'SF Mono', 'Fira Code', monospace; font-size: 13px; font-weight: 600; }
      .header { fill: #8b949e; font-family: 'SF Mono', 'Fira Code', monospace; font-size: 12px; }
      .mono { font-family: 'SF Mono', 'Fira Code', monospace; font-size: 12px; }
      .red { fill: #ff6b6b; }
      .yellow { fill: #ffd93d; }
      .green { fill: #6bcb77; }
      .dim { fill: #484f58; }
      .white { fill: #e6edf3; }
      .purple { fill: #c084fc; }
      .border { fill: none; stroke: #30363d; stroke-width: 1; }
    </style>
  </defs>

  <!-- Background -->
  <rect width="720" height="340" fill="#0d1117" rx="10"/>

  <!-- Window chrome -->
  <rect width="720" height="32" fill="#161b22" rx="10"/>
  <rect y="22" width="720" height="10" fill="#161b22"/>
  <circle cx="20" cy="16" r="6" fill="#ff5f57"/>
  <circle cx="40" cy="16" r="6" fill="#febc2e"/>
  <circle cx="60" cy="16" r="6" fill="#28c840"/>
  <text x="360" y="21" text-anchor="middle" font-family="SF Mono, monospace" font-size="12" fill="#8b949e">sentrix — Attack Heatmap</text>

  <!-- Content area -->
  <rect x="20" y="48" width="680" height="275" fill="#0d1117" rx="6"/>

  <!-- Header line -->
  <text x="36" y="72" class="mono title">sentrix fingerprint</text>
  <text x="240" y="72" class="mono" fill="#8b949e">  3 models · 5 plugins · $0.0421 total</text>

  <!-- Column headers -->
  <text x="36" y="102" class="mono header">Plugin            │</text>
  <text x="205" y="102" class="mono" fill="#c084fc" font-weight="600">  gpt-4o-mini   </text>
  <text x="370" y="102" class="mono header">│</text>
  <text x="385" y="102" class="mono" fill="#60a5fa" font-weight="600"> claude-haiku  </text>
  <text x="537" y="102" class="mono header">│</text>
  <text x="552" y="102" class="mono" fill="#34d399" font-weight="600"> llama-3      </text>

  <!-- Divider -->
  <text x="36" y="118" class="mono dim">──────────────────┼───────────────────┼──────────────────┼────────────────</text>

  <!-- Row 1: jailbreak (40%) -->
  <text x="36" y="138" class="mono white">jailbreak         │</text>
  <text x="210" y="138" class="mono red">████░░░░░░ 40%  </text>
  <text x="370" y="138" class="mono header">│</text>
  <text x="385" y="138" class="mono yellow"> ███░░░░░░░ 22% </text>
  <text x="537" y="138" class="mono header">│</text>
  <text x="552" y="138" class="mono green">  ██░░░░░░░░ 18%</text>

  <!-- Row 2: pii (55%) -->
  <text x="36" y="160" class="mono white">pii               │</text>
  <text x="210" y="160" class="mono red">█████░░░░░ 55%  </text>
  <text x="370" y="160" class="mono header">│</text>
  <text x="385" y="160" class="mono yellow"> ████░░░░░░ 35% </text>
  <text x="537" y="160" class="mono header">│</text>
  <text x="552" y="160" class="mono green">  ███░░░░░░░ 28%</text>

  <!-- Row 3: harmful (15%) -->
  <text x="36" y="182" class="mono white">harmful           │</text>
  <text x="210" y="182" class="mono yellow">██░░░░░░░░ 15%  </text>
  <text x="370" y="182" class="mono header">│</text>
  <text x="385" y="182" class="mono green"> █░░░░░░░░░  8% </text>
  <text x="537" y="182" class="mono header">│</text>
  <text x="552" y="182" class="mono green">  █░░░░░░░░░  6%</text>

  <!-- Row 4: hallucination (30%) -->
  <text x="36" y="204" class="mono white">hallucination     │</text>
  <text x="210" y="204" class="mono yellow">███░░░░░░░ 32%  </text>
  <text x="370" y="204" class="mono header">│</text>
  <text x="385" y="204" class="mono green"> ██░░░░░░░░ 18% </text>
  <text x="537" y="204" class="mono header">│</text>
  <text x="552" y="204" class="mono green">  ██░░░░░░░░ 14%</text>

  <!-- Row 5: injection (45%) -->
  <text x="36" y="226" class="mono white">injection         │</text>
  <text x="210" y="226" class="mono red">████░░░░░░ 45%  </text>
  <text x="370" y="226" class="mono header">│</text>
  <text x="385" y="226" class="mono yellow"> ███░░░░░░░ 28% </text>
  <text x="537" y="226" class="mono header">│</text>
  <text x="552" y="226" class="mono yellow">  ███░░░░░░░ 21%</text>

  <!-- Divider -->
  <text x="36" y="246" class="mono dim">──────────────────┼───────────────────┼──────────────────┼────────────────</text>

  <!-- Legend -->
  <text x="36" y="270" class="mono green">■</text>
  <text x="52" y="270" class="mono header"> &lt;20% safe   </text>
  <text x="200" y="270" class="mono yellow">■</text>
  <text x="216" y="270" class="mono header"> 20–40% warn   </text>
  <text x="370" y="270" class="mono red">■</text>
  <text x="386" y="270" class="mono header"> &gt;40% critical</text>

  <!-- Summary -->
  <text x="36" y="300" class="mono" fill="#8b949e">  Most vulnerable: </text>
  <text x="186" y="300" class="mono red">gpt-4o-mini</text>
  <text x="280" y="300" class="mono" fill="#8b949e">   Safest: </text>
  <text x="360" y="300" class="mono green">llama-3</text>
  <text x="440" y="300" class="mono" fill="#8b949e">   Worst category: </text>
  <text x="595" y="300" class="mono red">pii</text>
</svg>
